<svg width="37" height="33" viewBox="0 0 37 33" fill="none" xmlns="http://www.w3.org/2000/svg">
<path fill-rule="evenodd" clip-rule="evenodd" d="M9.74629 23.8892C7.53285 23.2859 5.61349 22.4627 4.11653 21.4856C1.81701 19.9846 0.498291 18.1118 0.498291 16.1096C0.498291 13.6313 2.55205 11.3392 5.95269 9.71189L4.78405 9.43342C4.42853 9.34866 4.21733 9.02354 4.31237 8.70752C4.40773 8.39179 4.77349 8.20406 5.12901 8.28854L7.96517 8.96409C8.32069 9.04886 8.53189 9.37369 8.43653 9.68999L7.67653 12.2107C7.58117 12.5268 7.21541 12.7145 6.85989 12.6297C6.50469 12.5452 6.29349 12.2198 6.38853 11.9041L6.76037 10.6708C3.75493 12.0554 1.83141 13.9541 1.83141 16.1096C1.83141 17.7705 2.99813 19.2849 4.90565 20.5302C6.11269 21.3181 7.61221 21.9945 9.32709 22.5253C8.79525 20.564 8.49829 18.3931 8.49829 16.1096C8.49829 10.8613 10.0669 6.21067 12.4503 3.32583C14.1389 1.28182 16.2458 0.109619 18.4983 0.109619C20.7508 0.109619 22.8577 1.28182 24.5463 3.32583C25.6452 4.6559 26.5706 6.36114 27.2493 8.3275C30.4935 9.21156 33.1041 10.5752 34.6986 12.2002C35.8621 13.3855 36.4983 14.7141 36.4983 16.1096C36.4983 18.1118 35.1793 19.9846 32.8801 21.4856C31.3837 22.4624 29.465 23.285 27.2529 23.8883C26.2605 26.7649 24.7319 29.0811 22.9095 30.4997C21.5725 31.5404 20.0733 32.1096 18.4983 32.1096C16.2458 32.1096 14.1389 30.9371 12.4503 28.8934C11.3508 27.5628 10.425 25.8564 9.74629 23.8892ZM27.6698 9.69625C28.2013 11.6569 28.4983 13.8267 28.4983 16.1096C28.4983 17.3979 28.4042 18.6503 28.2266 19.8492L29.2973 19.1489C29.5937 18.9549 30.0112 19.0115 30.2292 19.2749C30.4474 19.5383 30.3837 19.9095 30.0874 20.1035L27.7229 21.6503C27.4263 21.8443 27.009 21.788 26.7908 21.5243L25.0503 19.4223C24.8324 19.1589 24.8957 18.7877 25.1924 18.5937C25.4887 18.4 25.9063 18.4563 26.1242 18.72L26.9088 19.6675C27.0762 18.5265 27.1649 17.335 27.1649 16.1096C27.1649 11.1532 25.7223 6.75168 23.4714 4.02727C22.0705 2.3317 20.3668 1.29461 18.4983 1.29461C16.6295 1.29461 14.9258 2.3317 13.5249 4.02727C11.274 6.75168 9.83141 11.1532 9.83141 16.1096C9.83141 18.5669 10.1863 20.8883 10.8183 22.9363C13.1223 23.4981 15.7335 23.8132 18.4983 23.8132C24.074 23.8132 29.0256 22.531 32.0906 20.5302C33.9984 19.2849 35.1649 17.7705 35.1649 16.1096C35.1649 14.9889 34.6282 13.9313 33.6941 12.9793C32.3693 11.6296 30.2663 10.4984 27.6698 9.69625ZM25.7133 24.2621C23.5076 24.7345 21.0663 24.9985 18.4983 24.9985C15.929 24.9985 13.4871 24.7343 11.2807 24.2615C11.8775 25.7861 12.6385 27.119 13.5249 28.1917C14.9258 29.8875 16.6295 30.9243 18.4983 30.9243C19.7636 30.9243 20.9572 30.4439 22.0311 29.6079C23.5447 28.43 24.8132 26.5641 25.7133 24.2621ZM13.9489 16.1017C13.9489 15.7745 14.2474 15.5092 14.6154 15.5092C15.5309 15.5092 16.1057 14.878 16.1511 14.2508C16.1783 13.8756 16.0013 13.5013 15.5613 13.3027C15.0625 13.0777 14.5297 13.1093 14.1521 13.309C13.9501 13.4156 13.7921 13.5707 13.7457 13.763C13.6682 14.0827 13.3137 14.2866 12.9537 14.2178C12.594 14.1492 12.3649 13.8338 12.442 13.5141C12.729 12.3274 14.5197 11.5042 16.1645 12.2457C17.1341 12.6829 17.5415 13.5001 17.4817 14.3267C17.4337 14.9869 17.0762 15.6528 16.4676 16.1096C17.0762 16.5662 17.4337 17.232 17.4817 17.8922C17.5415 18.7188 17.1341 19.536 16.1645 19.9732C14.5197 20.7148 12.729 19.8916 12.442 18.7049C12.3649 18.3852 12.594 18.07 12.9537 18.0012C13.3137 17.9323 13.6682 18.1363 13.7457 18.456C13.7921 18.6486 13.9501 18.8033 14.1521 18.91C14.5297 19.1099 15.0625 19.1412 15.5613 18.9162C16.0013 18.718 16.1783 18.3434 16.1511 17.9685C16.1057 17.3413 15.5309 16.7101 14.6154 16.7101C14.2474 16.7101 13.9489 16.4444 13.9489 16.1173C13.9485 16.1122 13.9485 16.1068 13.9489 16.1017ZM19.4871 20.1661C19.1191 20.1661 18.8205 19.9007 18.8205 19.5733V12.6457C18.8205 12.3791 19.1277 12.0532 19.5034 12.0532H20.7655C21.7745 12.0532 22.7418 12.4093 23.4551 13.0433C24.1684 13.6773 24.5693 14.5372 24.5693 15.4341V16.7849C24.5693 17.6817 24.1684 18.5416 23.4551 19.1756C22.7418 19.8097 21.7745 20.1661 20.7655 20.1661H19.4871ZM20.154 18.9808H20.7655C21.4209 18.9808 22.049 18.7495 22.5124 18.3377C22.9757 17.9258 23.2359 17.3674 23.2359 16.7849V15.4341C23.2359 14.8518 22.9757 14.2932 22.5124 13.8813C22.049 13.4697 21.4209 13.2382 20.7655 13.2382H20.154V18.9808Z" fill="#727272"/>
</svg>
