<svg width="20" height="20" viewBox="0 0 20 20" fill="none" xmlns="http://www.w3.org/2000/svg">
<g clip-path="url(#clip0_14093_4878)">
<path d="M19.8678 9.67962L15.3225 5.13423C15.1592 4.94357 14.8722 4.92134 14.6816 5.08466C14.4909 5.24794 14.4687 5.53489 14.632 5.72555C14.6472 5.74332 14.6638 5.75992 14.6816 5.77512L18.4497 9.54779H0.454523C0.203512 9.54779 0 9.7513 0 10.0023C0 10.2534 0.203512 10.4569 0.454523 10.4569H18.4497L14.6816 14.225C14.4909 14.3882 14.4687 14.6752 14.632 14.8659C14.7953 15.0565 15.0822 15.0787 15.2729 14.9154C15.2907 14.9002 15.3073 14.8836 15.3225 14.8659L19.8679 10.3205C20.0441 10.1432 20.0441 9.85692 19.8678 9.67962Z" fill="#272727"/>
</g>
<defs>
<clipPath id="clip0_14093_4878">
<rect width="20" height="20" fill="white"/>
</clipPath>
</defs>
</svg>
