<svg width="36" height="36" viewBox="0 0 36 36" fill="none" xmlns="http://www.w3.org/2000/svg">
<path d="M16.575 22.425L13.8 25.2C13.215 25.785 12.285 25.785 11.685 25.215C11.52 25.05 11.355 24.9 11.19 24.735C9.645 23.175 8.25 21.54 7.005 19.83C5.775 18.12 4.785 16.41 4.065 14.715C3.36 13.005 3 11.37 3 9.81C3 8.79 3.18 7.815 3.54 6.915C3.9 6 4.47 5.16 5.265 4.41C6.225 3.465 7.275 3 8.385 3C8.805 3 9.225 3.09 9.6 3.27C9.99 3.45 10.335 3.72 10.605 4.11L14.085 9.015C14.355 9.39 14.55 9.735 14.685 10.065C14.82 10.38 14.895 10.695 14.895 10.98C14.895 11.34 14.79 11.7 14.58 12.045C14.385 12.39 14.1 12.75 13.74 13.11L12.6 14.295C12.435 14.46 12.36 14.655 12.36 14.895C12.36 15.015 12.375 15.12 12.405 15.24C12.45 15.36 12.495 15.45 12.525 15.54C12.795 16.035 13.26 16.68 13.92 17.46C14.595 18.24 15.315 19.035 16.095 19.83C16.245 19.98 16.41 20.13 16.56 20.28C17.16 20.865 17.175 21.825 16.575 22.425Z" fill="url(#paint0_linear_226_2731)"/>
<path d="M32.9544 27.4951C32.9544 27.9151 32.8794 28.3501 32.7294 28.7701C32.6844 28.8901 32.6394 29.0101 32.5794 29.1301C32.3244 29.6701 31.9944 30.1801 31.5594 30.6601C30.8244 31.4701 30.0144 32.0551 29.0994 32.4301C29.0844 32.4301 29.0694 32.4451 29.0544 32.4451C28.1694 32.8051 27.2094 33.0001 26.1744 33.0001C24.6444 33.0001 23.0094 32.6401 21.2844 31.9051C19.5594 31.1701 17.8344 30.1801 16.1244 28.9351C15.5394 28.5001 14.9544 28.0651 14.3994 27.6001L19.3044 22.6951C19.7244 23.0101 20.0994 23.2501 20.4144 23.4151C20.4894 23.4451 20.5794 23.4901 20.6844 23.5351C20.8044 23.5801 20.9244 23.5951 21.0594 23.5951C21.3144 23.5951 21.5094 23.5051 21.6744 23.3401L22.8144 22.2151C23.1894 21.8401 23.5494 21.5551 23.8944 21.3751C24.2394 21.1651 24.5844 21.0601 24.9594 21.0601C25.2444 21.0601 25.5444 21.1201 25.8744 21.2551C26.2044 21.3901 26.5494 21.5851 26.9244 21.8401L31.8894 25.3651C32.2794 25.6351 32.5494 25.9501 32.7144 26.3251C32.8644 26.7001 32.9544 27.0751 32.9544 27.4951Z" fill="url(#paint1_linear_226_2731)"/>
<defs>
<linearGradient id="paint0_linear_226_2731" x1="10.0088" y1="3" x2="10.0088" y2="25.6406" gradientUnits="userSpaceOnUse">
<stop stop-color="#978260"/>
<stop offset="1" stop-color="#A9977B"/>
</linearGradient>
<linearGradient id="paint1_linear_226_2731" x1="23.6769" y1="21.0601" x2="23.6769" y2="33.0001" gradientUnits="userSpaceOnUse">
<stop stop-color="#978260"/>
<stop offset="1" stop-color="#A9977B"/>
</linearGradient>
</defs>
</svg>
