<svg id="Layer_1" enable-background="new 0 0 24 24" height="24" viewBox="0 0 24 24" width="24" xmlns="http://www.w3.org/2000/svg"><g><path d="m14.8 12.3-4.1 2.2c-.1 0-.2.1-.2.1-.1 0-.2 0-.2-.1-.1-.1-.2-.2-.2-.4v-4.5c0-.2.1-.3.2-.4s.3-.1.5 0l4.1 2.3c.2.1.3.2.3.4-.2.1-.3.3-.4.4z"/><path d="m19.7.5h-15.4c-2.1 0-3.8 1.7-3.8 3.8v15.4c0 2.1 1.7 3.8 3.8 3.8h15.4c2.1 0 3.8-1.7 3.8-3.8v-15.4c0-2.1-1.7-3.8-3.8-3.8zm.4 12.1c0 1.3-.2 2.6-.2 2.6 0 .1-.2 1.3-.7 1.9-.6.7-1.4.8-1.7.8h-.1c-2.1.2-5.4.2-5.4.2-.2 0-4 0-5.2-.2-.1 0-.1 0-.2 0-.4-.1-1.2-.1-1.8-.8-.6-.6-.8-1.7-.8-1.8s-.2-1.3-.2-2.7v-1.2c.1-1.3.2-2.6.2-2.6 0-.1.2-1.3.7-1.9.6-.7 1.4-.8 1.7-.8h.1c2.2-.2 5.5-.2 5.5-.2s3.3 0 5.4.2h.1c.4 0 1.1.1 1.7.8.6.6.8 1.7.8 1.8s.2 1.3.2 2.6v1.3z"/><path d="m10.9 13.3 2.6-1.5-2.6-1.4z"/></g></svg>