<svg width="32" height="41" viewBox="0 0 32 41" fill="none" xmlns="http://www.w3.org/2000/svg">
<g clip-path="url(#clip0_14093_1827)">
<path d="M9.93198 1.60059H21.405C22.784 1.60059 23.869 2.78359 23.757 4.15559L22.399 20.3746H8.93798L7.57998 4.15559C7.46798 2.77659 8.55298 1.60059 9.93198 1.60059Z" stroke="#9BA4B2" stroke-width="1.4" stroke-linecap="round" stroke-linejoin="round"/>
<path d="M24.1631 23.6582H7.17412C6.30427 23.6582 5.59912 24.3634 5.59912 25.2332V25.8352C5.59912 26.7051 6.30427 27.4102 7.17412 27.4102H24.1631C25.033 27.4102 25.7381 26.7051 25.7381 25.8352V25.2332C25.7381 24.3634 25.033 23.6582 24.1631 23.6582Z" stroke="#9BA4B2" stroke-width="1.4" stroke-linecap="round" stroke-linejoin="round"/>
<path d="M17.541 20.375V23.658" stroke="#9BA4B2" stroke-width="1.4" stroke-linecap="round" stroke-linejoin="round"/>
<path d="M13.7891 23.658V20.375" stroke="#9BA4B2" stroke-width="1.4" stroke-linecap="round" stroke-linejoin="round"/>
<path d="M13.7891 36.2435V32.5615H17.5411V36.2435" stroke="#9BA4B2" stroke-width="1.4" stroke-linecap="round" stroke-linejoin="round"/>
<path d="M25.738 25.534C26.746 25.534 27.558 24.715 27.558 23.714V20.165" stroke="#9BA4B2" stroke-width="1.4" stroke-linecap="round" stroke-linejoin="round"/>
<path d="M5.5993 25.534C4.5913 25.534 3.7793 24.715 3.7793 23.714V20.165" stroke="#9BA4B2" stroke-width="1.4" stroke-linecap="round" stroke-linejoin="round"/>
<path d="M4.97605 17.5752H0.748047V20.1582H4.97605V17.5752Z" stroke="#9BA4B2" stroke-width="1.4" stroke-linecap="round" stroke-linejoin="round"/>
<path d="M30.8481 17.5752H26.6201V20.1582H30.8481V17.5752Z" stroke="#9BA4B2" stroke-width="1.4" stroke-linecap="round" stroke-linejoin="round"/>
<path d="M7.37012 36.2441H23.9671" stroke="#9BA4B2" stroke-width="1.4" stroke-linecap="round" stroke-linejoin="round"/>
<path d="M7.36992 39.401C8.23977 39.401 8.94492 38.6958 8.94492 37.826C8.94492 36.9561 8.23977 36.251 7.36992 36.251C6.50007 36.251 5.79492 36.9561 5.79492 37.826C5.79492 38.6958 6.50007 39.401 7.36992 39.401Z" stroke="#9BA4B2" stroke-width="1.4" stroke-linecap="round" stroke-linejoin="round"/>
<path d="M23.9671 39.401C24.8369 39.401 25.5421 38.6958 25.5421 37.826C25.5421 36.9561 24.8369 36.251 23.9671 36.251C23.0972 36.251 22.3921 36.9561 22.3921 37.826C22.3921 38.6958 23.0972 39.401 23.9671 39.401Z" stroke="#9BA4B2" stroke-width="1.4" stroke-linecap="round" stroke-linejoin="round"/>
<path d="M15.665 32.5622V27.4102" stroke="#9BA4B2" stroke-width="1.4" stroke-linecap="round" stroke-linejoin="round"/>
</g>
<defs>
<clipPath id="clip0_14093_1827">
<rect width="31.5" height="39.2" fill="white" transform="translate(0.0480957 0.900391)"/>
</clipPath>
</defs>
</svg>
