<svg width="16" height="17" viewBox="0 0 16 17" fill="none" xmlns="http://www.w3.org/2000/svg">
<path d="M8 15.8019C7.7693 15.8019 7.54605 15.7721 7.36 15.7051C4.51721 14.7302 0 11.2698 0 6.15723C0 3.55258 2.10605 1.43909 4.69581 1.43909C5.95349 1.43909 7.1293 1.93025 8 2.80839C8.8707 1.93025 10.0465 1.43909 11.3042 1.43909C13.894 1.43909 16 3.56002 16 6.15723C16 11.2772 11.4828 14.7302 8.64 15.7051C8.45395 15.7721 8.2307 15.8019 8 15.8019ZM4.69581 2.55537C2.72372 2.55537 1.11628 4.17025 1.11628 6.15723C1.11628 11.24 6.00558 14.0679 7.72465 14.6558C7.8586 14.7005 8.14884 14.7005 8.28279 14.6558C9.99442 14.0679 14.8912 11.2475 14.8912 6.15723C14.8912 4.17025 13.2837 2.55537 11.3116 2.55537C10.1805 2.55537 9.13116 3.08374 8.45395 3.99909C8.24558 4.28188 7.7693 4.28188 7.56093 3.99909C6.86884 3.0763 5.82698 2.55537 4.69581 2.55537Z" fill="#9BA4B2"/>
</svg>
