<svg width="36" height="36" viewBox="0 0 36 36" fill="none" xmlns="http://www.w3.org/2000/svg">
<g clip-path="url(#clip0_226_2737)">
<path d="M32.6239 12.9892C30.9202 5.68738 24.3814 2.39996 18.6376 2.39996C18.6376 2.39996 18.6376 2.39996 18.6214 2.39996C12.8938 2.39996 6.33876 5.67157 4.63509 12.9734C2.73672 21.1287 7.86395 28.0355 12.5044 32.3818C14.2243 33.9939 16.431 34.8 18.6376 34.8C20.8443 34.8 23.0509 33.9939 24.7546 32.3818C29.395 28.0355 34.5223 21.1445 32.6239 12.9892ZM18.6376 20.9075C15.8144 20.9075 13.5266 18.679 13.5266 15.9289C13.5266 13.1789 15.8144 10.9504 18.6376 10.9504C21.4608 10.9504 23.7486 13.1789 23.7486 15.9289C23.7486 18.679 21.4608 20.9075 18.6376 20.9075Z" fill="url(#paint0_linear_226_2737)"/>
</g>
<defs>
<linearGradient id="paint0_linear_226_2737" x1="18.6295" y1="2.39996" x2="18.6295" y2="34.8" gradientUnits="userSpaceOnUse">
<stop stop-color="#978260"/>
<stop offset="1" stop-color="#A9977B"/>
</linearGradient>
<clipPath id="clip0_226_2737">
<rect width="36" height="36" fill="white"/>
</clipPath>
</defs>
</svg>
