<svg width="13" height="13" viewBox="0 0 13 13" fill="none" xmlns="http://www.w3.org/2000/svg">
<path fill-rule="evenodd" clip-rule="evenodd" d="M2.2981 1C2.2981 1.41421 1.96231 1.75 1.5481 1.75C1.13389 1.75 0.798096 1.41421 0.798096 1C0.798096 0.58579 1.13389 0.25 1.5481 0.25C1.96231 0.25 2.2981 0.58579 2.2981 1ZM2.2981 6.25C2.2981 6.66422 1.96231 7 1.5481 7C1.13389 7 0.798096 6.66422 0.798096 6.25C0.798096 5.83578 1.13389 5.5 1.5481 5.5C1.96231 5.5 2.2981 5.83578 2.2981 6.25ZM1.5481 12.25C1.96231 12.25 2.2981 11.9142 2.2981 11.5C2.2981 11.0858 1.96231 10.75 1.5481 10.75C1.13389 10.75 0.798096 11.0858 0.798096 11.5C0.798096 11.9142 1.13389 12.25 1.5481 12.25ZM7.5481 6.25C7.5481 6.66422 7.21232 7 6.7981 7C6.38387 7 6.0481 6.66422 6.0481 6.25C6.0481 5.83578 6.38387 5.5 6.7981 5.5C7.21232 5.5 7.5481 5.83578 7.5481 6.25ZM6.7981 1.75C7.21232 1.75 7.5481 1.41421 7.5481 1C7.5481 0.58579 7.21232 0.25 6.7981 0.25C6.38387 0.25 6.0481 0.58579 6.0481 1C6.0481 1.41421 6.38387 1.75 6.7981 1.75ZM7.5481 11.5C7.5481 11.9142 7.21232 12.25 6.7981 12.25C6.38387 12.25 6.0481 11.9142 6.0481 11.5C6.0481 11.0858 6.38387 10.75 6.7981 10.75C7.21232 10.75 7.5481 11.0858 7.5481 11.5ZM12.0481 7C12.4623 7 12.7981 6.66422 12.7981 6.25C12.7981 5.83578 12.4623 5.5 12.0481 5.5C11.6339 5.5 11.2981 5.83578 11.2981 6.25C11.2981 6.66422 11.6339 7 12.0481 7ZM12.7981 1C12.7981 1.41421 12.4623 1.75 12.0481 1.75C11.6339 1.75 11.2981 1.41421 11.2981 1C11.2981 0.58579 11.6339 0.25 12.0481 0.25C12.4623 0.25 12.7981 0.58579 12.7981 1ZM12.0481 12.25C12.4623 12.25 12.7981 11.9142 12.7981 11.5C12.7981 11.0858 12.4623 10.75 12.0481 10.75C11.6339 10.75 11.2981 11.0858 11.2981 11.5C11.2981 11.9142 11.6339 12.25 12.0481 12.25Z" fill="#272727"/>
</svg>
