<svg width="50" height="50" viewBox="0 0 50 50" fill="none" xmlns="http://www.w3.org/2000/svg">
<g clip-path="url(#clip0_12498_934)">
<path d="M11.4261 30.8457L34.3295 17.7581L23.497 14.8038C23.3039 14.7547 23.1226 14.6677 22.9636 14.5478C22.8045 14.4279 22.6709 14.2775 22.5706 14.1055C22.4703 13.9334 22.4052 13.7431 22.3793 13.5456C22.3533 13.3481 22.3669 13.1475 22.4193 12.9553C22.4717 12.7631 22.5619 12.5833 22.6845 12.4264C22.8071 12.2695 22.9598 12.1385 23.1336 12.0412C23.3074 11.9439 23.4988 11.8822 23.6967 11.8596C23.8946 11.8371 24.095 11.8542 24.2862 11.9099L38.6122 15.817C38.9959 15.9217 39.3224 16.1745 39.5197 16.5199C39.717 16.8652 39.7691 17.2748 39.6645 17.6585L35.7574 31.9846C35.6474 32.3622 35.3934 32.6814 35.0502 32.8736C34.7071 33.0657 34.3021 33.1154 33.9227 33.0119C33.5432 32.9085 33.2196 32.6601 33.0215 32.3203C32.8234 31.9805 32.7667 31.5765 32.8636 31.1953L35.8179 20.3628L12.9145 33.4505C12.5691 33.6478 12.1594 33.6999 11.7756 33.5953C11.3918 33.4906 11.0653 33.2377 10.8679 32.8923C10.6706 32.5469 10.6185 32.1372 10.7232 31.7534C10.8278 31.3696 11.0807 31.0431 11.4261 30.8457Z" fill="#272727"/>
</g>
<defs>
<clipPath id="clip0_12498_934">
<rect width="36" height="36" fill="white" transform="matrix(-0.868243 0.496139 0.496139 0.868243 31.8918 0.146973)"/>
</clipPath>
</defs>
</svg>
