<svg width="16" height="17" viewBox="0 0 16 17" fill="none" xmlns="http://www.w3.org/2000/svg">
<g clip-path="url(#clip0_12844_2576)">
<path d="M15.4892 15.1939L11.6812 11.2334C12.6603 10.0695 13.1967 8.60504 13.1967 7.08048C13.1967 3.51849 10.2987 0.620483 6.73673 0.620483C3.17474 0.620483 0.276733 3.51849 0.276733 7.08048C0.276733 10.6425 3.17474 13.5405 6.73673 13.5405C8.07395 13.5405 9.34825 13.1371 10.4377 12.3715L14.2747 16.3621C14.4351 16.5286 14.6508 16.6205 14.8819 16.6205C15.1007 16.6205 15.3083 16.5371 15.4659 16.3854C15.8007 16.0632 15.8113 15.529 15.4892 15.1939ZM6.73673 2.3057C9.3696 2.3057 11.5115 4.44761 11.5115 7.08048C11.5115 9.71335 9.3696 11.8553 6.73673 11.8553C4.10386 11.8553 1.96195 9.71335 1.96195 7.08048C1.96195 4.44761 4.10386 2.3057 6.73673 2.3057Z" fill="#9BA4B2"/>
</g>
<defs>
<clipPath id="clip0_12844_2576">
<rect width="16" height="16" fill="white" transform="translate(0 0.620483)"/>
</clipPath>
</defs>
</svg>
