<svg width="24" height="24" viewBox="0 0 24 24" fill="none" xmlns="http://www.w3.org/2000/svg">
<g clip-path="url(#clip0_12713_1136)">
<path d="M23.7669 0.539979C23.7258 0.48285 23.6806 0.430299 23.6321 0.381043C23.6299 0.378663 23.6281 0.376099 23.6257 0.373902C23.6237 0.371888 23.6213 0.370057 23.6193 0.368043C23.3477 0.0992435 22.97 -0.046875 22.5327 -0.046875C22.2846 -0.046875 22.0182 9.68575e-08 21.7412 0.0924685L1.34556 6.89082C0.266513 7.25063 0.0698571 7.87868 0.0487999 8.2209C0.0275596 8.56331 0.145297 9.21077 1.17142 9.70076L6.29289 12.1467L4.00096 17.8063C3.99528 17.82 3.99015 17.834 3.98557 17.8479C3.73087 18.612 3.83341 19.299 4.26719 19.7326C4.54423 20.0096 4.92454 20.1515 5.36235 20.1515C5.60991 20.1515 5.87578 20.1061 6.15172 20.0142C6.16582 20.0094 6.17955 20.0045 6.19328 19.9988L11.8531 17.7069L14.2988 22.8282C14.7663 23.8069 15.3824 23.9532 15.7082 23.9532C15.9991 23.9532 16.718 23.8265 17.1088 22.654L23.9073 2.25843C24.1312 1.58661 24.0814 0.976321 23.7669 0.539979ZM1.56949 8.3152C1.62516 8.287 1.69803 8.25588 1.79032 8.22511L21.2752 1.72998L10.2824 12.7229C9.8814 12.3856 9.46209 12.1018 9.06438 11.912L1.77732 8.43166C1.68961 8.38973 1.62131 8.34999 1.56949 8.3152ZM5.68773 18.6865C5.44511 18.7643 5.3076 18.751 5.26365 18.7361C5.24882 18.692 5.23546 18.5547 5.31328 18.312L7.5642 12.7539L8.4583 13.1811C9.30938 13.5874 10.4122 14.6904 10.8187 15.5413L11.2459 16.4356L5.68773 18.6865ZM15.7747 22.2095C15.7439 22.3019 15.7128 22.3746 15.6846 22.4303C15.6496 22.3785 15.6097 22.3102 15.5677 22.2221L12.0876 14.9352C11.8978 14.5375 11.6139 14.1184 11.2767 13.7172L22.2698 2.72425L15.7747 22.2095Z" fill="#9BA4B2"/>
</g>
<defs>
<clipPath id="clip0_12713_1136">
<rect width="24" height="24" fill="white"/>
</clipPath>
</defs>
</svg>
