<svg width="16" height="48" viewBox="0 0 16 48" fill="none" xmlns="http://www.w3.org/2000/svg">
<path d="M15.1879 19.5566C14.7849 20.1447 14.2948 20.6511 13.7176 21.0758V21.4515C13.7176 22.2466 13.6033 23.0362 13.3746 23.8203C13.1459 24.6044 12.7974 25.3613 12.3291 26.091C11.8608 26.8207 11.2999 27.4578 10.6464 28.0024C9.99298 28.5469 9.20884 28.9934 8.29402 29.3419C7.37919 29.6904 6.39357 29.8538 5.33716 29.832C3.69265 29.832 2.18972 29.3909 0.828369 28.5088C1.03529 28.5306 1.26945 28.5415 1.53083 28.5415C2.90307 28.5415 4.12284 28.1222 5.19014 27.2836C4.54758 27.2727 3.97581 27.0767 3.47483 26.6955C2.97386 26.3143 2.62535 25.8297 2.42932 25.2416C2.63624 25.2742 2.82139 25.2906 2.98475 25.2906C3.24613 25.2906 3.50751 25.2579 3.76889 25.1925C3.08277 25.051 2.51644 24.7133 2.06992 24.1797C1.6234 23.646 1.40014 23.0198 1.40014 22.301V22.2684C1.81399 22.4971 2.26051 22.6223 2.73971 22.6441C2.33675 22.3718 2.01547 22.0233 1.77587 21.5986C1.53627 21.1738 1.41647 20.7001 1.41647 20.1773C1.41647 19.6546 1.55261 19.1645 1.82488 18.7071C2.56545 19.611 3.4585 20.3352 4.50402 20.8798C5.54953 21.4243 6.68218 21.7238 7.90195 21.7783C7.84749 21.5496 7.82027 21.3263 7.82027 21.1085C7.82027 20.2917 8.10887 19.6001 8.68608 19.0338C9.2633 18.4675 9.95486 18.1789 10.7608 18.168C11.6212 18.168 12.3399 18.4784 12.9172 19.0991C13.5815 18.9684 14.2077 18.7288 14.7958 18.3803C14.5671 19.0774 14.1315 19.6219 13.4889 20.014C14.0553 19.9486 14.6216 19.7961 15.1879 19.5566Z" fill="#FFF0E3"/>
</svg>
