<svg width="24" height="48" viewBox="0 0 24 48" fill="none" xmlns="http://www.w3.org/2000/svg">
<path d="M22.7943 17.4499C22.578 17.0716 22.351 16.7852 22.1131 16.5906C21.8752 16.3961 21.5832 16.2556 21.2372 16.1691C20.9561 16.1042 20.556 16.0556 20.0369 16.0232C19.3449 15.9799 18.2095 15.9475 16.6307 15.9259C15.1493 15.9043 13.6084 15.8935 12.0081 15.8935C7.84495 15.8935 5.15784 15.9421 3.94676 16.0394C3.4169 16.0826 3.01681 16.1367 2.74648 16.2015C2.41127 16.288 2.12472 16.4258 1.88682 16.615C1.64893 16.8041 1.42185 17.0878 1.20559 17.4661C0.870375 18.0606 0.621669 18.8605 0.45947 19.8657C0.286457 20.9465 0.199951 22.3247 0.199951 24C0.199951 25.6862 0.286457 27.0643 0.45947 28.1343C0.621669 29.1612 0.870375 29.961 1.20559 30.5339C1.42185 30.9014 1.65163 31.1824 1.89493 31.3769C2.13823 31.5715 2.42749 31.7174 2.7627 31.8147C3.04385 31.8904 3.43853 31.9444 3.94676 31.9768C5.2011 32.0633 7.8882 32.1065 12.0081 32.1065C13.6192 32.1065 15.1709 32.0957 16.6632 32.0741C18.2311 32.0525 19.3557 32.0201 20.0369 31.9768C20.5452 31.9444 20.9452 31.8904 21.2372 31.8147C21.5724 31.7282 21.8617 31.5877 22.105 31.3932C22.3483 31.1986 22.578 30.9122 22.7943 30.5339C23.1295 29.961 23.3782 29.1612 23.5404 28.1343C23.7134 27.0643 23.7999 25.6862 23.7999 24C23.7999 22.303 23.7134 20.9195 23.5404 19.8495C23.3782 18.8334 23.1295 18.0336 22.7943 17.4499ZM9.05603 28.4262V19.5738L16.4199 24L9.05603 28.4262Z" fill="#FFF0E3"/>
</svg>
